<svg id="icon_calendar" xmlns="http://www.w3.org/2000/svg" width="22.078" height="22.078" viewBox="0 0 22.078 22.078">
  <rect id="Rectangle_557" data-name="Rectangle 557" width="22" height="22" transform="translate(0.039 0.039)" fill="none"/>
  <path id="Path_149" data-name="Path 149" d="M2.76,6.9V19.318H19.318V6.9ZM17.938,2.76H20.7a1.3,1.3,0,0,1,1.38,1.38V20.7a1.3,1.3,0,0,1-1.38,1.38H1.38A1.3,1.3,0,0,1,0,20.7V4.14A1.3,1.3,0,0,1,1.38,2.76H4.14V1.38A1.3,1.3,0,0,1,5.519,0,1.3,1.3,0,0,1,6.9,1.38V2.76h8.279V1.38a1.38,1.38,0,0,1,2.76,0Zm-1.38,13.8H13.8V13.8h2.76Zm-4.14,0H9.659V13.8h2.76Zm4.14-4.14H13.8V9.659h2.76Zm-4.14,0H9.659V9.659h2.76Zm-4.14,4.14H5.519V13.8h2.76Z" fill="#878787" fill-rule="evenodd"/>
</svg>
