<svg xmlns="http://www.w3.org/2000/svg" width="22" height="22" viewBox="0 0 22 22">
  <path id="icon_dashboard" d="M-476.124-2A1.3,1.3,0,0,1-477.5-3.375V-15.75a1.3,1.3,0,0,1,1.376-1.375h2.75A1.3,1.3,0,0,1-472-15.75V-3.375A1.3,1.3,0,0,1-473.375-2Zm-8.25,0a1.3,1.3,0,0,1-1.375-1.375v-19.25A1.3,1.3,0,0,1-484.375-24h2.75a1.3,1.3,0,0,1,1.375,1.375v19.25A1.3,1.3,0,0,1-481.625-2Zm-8.25,0A1.3,1.3,0,0,1-494-3.375v-5.5a1.3,1.3,0,0,1,1.375-1.376h2.75A1.3,1.3,0,0,1-488.5-8.874v5.5A1.3,1.3,0,0,1-489.876-2Z" transform="translate(-2 494) rotate(90)" fill="#878787"/>
</svg>
