<svg id="icon_setting" xmlns="http://www.w3.org/2000/svg" width="22.078" height="22.078" viewBox="0 0 22.078 22.078">
  <path id="Path_108" data-name="Path 108" d="M18.352,7.175l1.518-2.9L17.938,2.346l-2.9,1.518a4.943,4.943,0,0,0-1.518-.552L12.419,0H9.659l-1.1,3.174a5.767,5.767,0,0,0-1.38.552l-2.9-1.518-2.07,2.07,1.518,2.9a5.767,5.767,0,0,0-.552,1.38L0,9.659v2.76l3.174,1.1c.138.552.414.966.552,1.518l-1.518,2.9L4.14,19.87l2.9-1.518a4.943,4.943,0,0,0,1.518.552l1.1,3.174h2.76l1.1-3.174c.552-.138.966-.414,1.518-.552l2.9,1.518,1.932-1.932-1.518-2.9a4.943,4.943,0,0,0,.552-1.518l3.174-1.1V9.659L18.9,8.555A5.767,5.767,0,0,0,18.352,7.175Zm-7.313,8a4.066,4.066,0,0,1-4.14-4.14,4.066,4.066,0,0,1,4.14-4.14,4.066,4.066,0,0,1,4.14,4.14A4.066,4.066,0,0,1,11.039,15.178Z" fill="#878787"/>
</svg>
